<?xml version="1.0" encoding="UTF-8" standalone="no"?>
<!-- Created with Inkscape (http://www.inkscape.org/) -->

<svg
   xmlns:dc="http://purl.org/dc/elements/1.1/"
   xmlns:cc="http://creativecommons.org/ns#"
   xmlns:rdf="http://www.w3.org/1999/02/22-rdf-syntax-ns#"
   xmlns:svg="http://www.w3.org/2000/svg"
   xmlns="http://www.w3.org/2000/svg"
   xmlns:sodipodi="http://sodipodi.sourceforge.net/DTD/sodipodi-0.dtd"
   xmlns:inkscape="http://www.inkscape.org/namespaces/inkscape"
   width="200pt"
   height="200pt"
   viewBox="0 0 70.555558 70.555555"
   version="1.1"
   id="svg831"
   inkscape:version="0.92.2 2405546, 2018-03-11"
   sodipodi:docname="bitses_logo_square.svg"
   inkscape:export-filename="/home/onur/Desktop/bitses_large_square.png"
   inkscape:export-xdpi="691.20001"
   inkscape:export-ydpi="691.20001">
  <defs
     id="defs825" />
  <sodipodi:namedview
     id="base"
     pagecolor="#ffffff"
     bordercolor="#666666"
     borderopacity="1.0"
     inkscape:pageopacity="0.0"
     inkscape:pageshadow="2"
     inkscape:zoom="1.4"
     inkscape:cx="202.17153"
     inkscape:cy="81.738625"
     inkscape:document-units="mm"
     inkscape:current-layer="layer1"
     showgrid="false"
     units="pt"
     inkscape:window-width="1920"
     inkscape:window-height="1036"
     inkscape:window-x="0"
     inkscape:window-y="20"
     inkscape:window-maximized="0" />
  <metadata
     id="metadata828">
    <rdf:RDF>
      <cc:Work
         rdf:about="">
        <dc:format>image/svg+xml</dc:format>
        <dc:type
           rdf:resource="http://purl.org/dc/dcmitype/StillImage" />
        <dc:title></dc:title>
      </cc:Work>
    </rdf:RDF>
  </metadata>
  <g
     inkscape:label="Layer 1"
     inkscape:groupmode="layer"
     id="layer1"
     transform="translate(0,-226.44446)">
    <g
       id="g1493"
       transform="translate(-8.8194465,11.087305)">
      <g
         id="text817"
         style="font-style:normal;font-weight:normal;font-size:18.73245621px;line-height:29.26946449px;font-family:sans-serif;text-align:end;letter-spacing:0px;word-spacing:0px;text-anchor:end;fill:#000000;fill-opacity:1;stroke:none;stroke-width:0.26458335px;stroke-linecap:butt;stroke-linejoin:miter;stroke-opacity:1"
         aria-label="Bitses"
         transform="translate(14.232776,166.49719)">
        <path
           id="path848"
           style="font-style:normal;font-variant:normal;font-weight:bold;font-stretch:normal;font-family:'Gotham Rounded';-inkscape-font-specification:'Gotham Rounded Bold';letter-spacing:-0.365125px;stroke-width:0.26458335px"
           d="m 3.3184075,74.536521 c 0,0.805495 0.6369035,1.442399 1.4423991,1.442399 h 4.7955088 c 2.9597276,0 4.9079036,-1.198877 4.9079036,-3.596632 v -0.03746 c 0,-1.76085 -0.936623,-2.641276 -2.453952,-3.221982 0.936623,-0.524509 1.723386,-1.348737 1.723386,-2.828601 v -0.03746 c 0,-0.899158 -0.299719,-1.629723 -0.899158,-2.229162 -0.749298,-0.749298 -1.929443,-1.161412 -3.4280392,-1.161412 H 4.7608066 c -0.8054956,0 -1.4423991,0.636903 -1.4423991,1.442399 z m 2.8098684,-6.369035 v -2.772404 h 2.8473334 c 1.2176097,0 1.8919777,0.487044 1.8919777,1.348737 v 0.03746 c 0,0.974088 -0.805495,1.386202 -2.0793023,1.386202 z m 0,5.282552 V 70.56524 h 3.3343772 c 1.4798639,0 2.1354999,0.543241 2.1354999,1.423667 v 0.03746 c 0,0.974087 -0.768031,1.423666 -2.0418376,1.423666 z"
           inkscape:connector-curvature="0" />
        <path
           id="path850"
           style="font-style:normal;font-variant:normal;font-weight:bold;font-stretch:normal;font-family:'Gotham Rounded';-inkscape-font-specification:'Gotham Rounded Bold';letter-spacing:-0.365125px;stroke-width:0.26458335px"
           d="m 16.153225,63.578034 c 0,0.824228 0.693101,1.348737 1.592259,1.348737 0.899158,0 1.592259,-0.524509 1.592259,-1.348737 v -0.03747 c 0,-0.824228 -0.693101,-1.330004 -1.592259,-1.330004 -0.899158,0 -1.592259,0.505776 -1.592259,1.330004 z m 0.168592,11.089614 c 0,0.786763 0.636904,1.423667 1.423667,1.423667 0.786763,0 1.423667,-0.636904 1.423667,-1.423667 v -7.418053 c 0,-0.786763 -0.636904,-1.423666 -1.423667,-1.423666 -0.786763,0 -1.423667,0.636903 -1.423667,1.423666 z"
           inkscape:connector-curvature="0" />
        <path
           id="path852"
           style="font-style:normal;font-variant:normal;font-weight:bold;font-stretch:normal;font-family:'Gotham Rounded';-inkscape-font-specification:'Gotham Rounded Bold';letter-spacing:-0.365125px;stroke-width:0.26458335px"
           d="m 24.887097,76.147512 c 0.618172,0 1.105215,-0.07493 1.629724,-0.280987 0.393382,-0.149859 0.730566,-0.561973 0.730566,-1.06775 0,-0.655636 -0.543241,-1.180144 -1.180145,-1.180144 -0.0562,0 -0.243522,0.01873 -0.337184,0.01873 -0.636904,0 -0.91789,-0.318452 -0.91789,-0.974088 v -4.289732 h 1.255074 c 0.674369,0 1.21761,-0.543241 1.21761,-1.21761 0,-0.674368 -0.543241,-1.21761 -1.21761,-1.21761 h -1.255074 v -1.255074 c 0,-0.786763 -0.636904,-1.423667 -1.423667,-1.423667 -0.786763,0 -1.423667,0.636904 -1.423667,1.423667 v 1.255074 h -0.09366 c -0.674368,0 -1.21761,0.543242 -1.21761,1.21761 0,0.674369 0.543242,1.21761 1.21761,1.21761 h 0.09366 v 4.758044 c 0,2.322824 1.180145,3.015925 2.922263,3.015925 z"
           inkscape:connector-curvature="0" />
        <path
           id="path854"
           style="font-style:normal;font-variant:normal;font-weight:bold;font-stretch:normal;font-family:'Gotham Rounded';-inkscape-font-specification:'Gotham Rounded Bold';letter-spacing:-0.365125px;stroke-width:0.26458335px"
           d="m 32.409508,76.166245 c 2.172965,0 3.840153,-1.011553 3.840153,-3.240715 v -0.03746 c 0,-1.835781 -1.629723,-2.510149 -3.034658,-2.978461 -1.086482,-0.374649 -2.041837,-0.636903 -2.041837,-1.198877 v -0.03747 c 0,-0.393382 0.355916,-0.693101 1.049017,-0.693101 0.599439,0 1.367469,0.243522 2.172965,0.636904 0.187325,0.09366 0.318452,0.131127 0.524509,0.131127 0.636903,0 1.14268,-0.487044 1.14268,-1.123947 0,-0.487044 -0.262255,-0.861693 -0.674369,-1.06775 -0.974087,-0.487044 -2.06057,-0.768031 -3.109587,-0.768031 -2.023106,0 -3.671562,1.14268 -3.671562,3.184517 v 0.03746 c 0,1.948176 1.592259,2.603812 2.997193,3.015926 1.105215,0.337184 2.079303,0.543241 2.079303,1.161412 v 0.03747 c 0,0.449579 -0.374649,0.749298 -1.198877,0.749298 -0.805496,0 -1.760851,-0.299719 -2.716207,-0.899158 -0.149859,-0.09366 -0.355916,-0.149859 -0.561973,-0.149859 -0.636904,0 -1.123948,0.487043 -1.123948,1.123947 0,0.449579 0.243522,0.786763 0.543242,0.974088 1.217609,0.786763 2.547614,1.14268 3.783956,1.14268 z"
           inkscape:connector-curvature="0" />
        <path
           id="path856"
           style="font-style:normal;font-variant:normal;font-weight:bold;font-stretch:normal;font-family:'Gotham Rounded';-inkscape-font-specification:'Gotham Rounded Bold';letter-spacing:-0.365125px;stroke-width:0.26458335px"
           d="m 40.229587,70.171859 c 0.22479,-1.29254 0.99282,-2.1355 2.172965,-2.1355 1.198877,0 1.948176,0.861693 2.116768,2.1355 z m 5.938189,4.814241 c 0.206057,-0.187325 0.374649,-0.468312 0.374649,-0.842961 0,-0.636903 -0.468311,-1.123947 -1.105215,-1.123947 -0.299719,0 -0.487044,0.07493 -0.693101,0.224789 -0.580706,0.430847 -1.236342,0.674369 -2.023105,0.674369 -1.273807,0 -2.172965,-0.674369 -2.453952,-1.966908 h 5.638469 c 0.749299,0 1.330005,-0.543241 1.330005,-1.367469 0,-2.079303 -1.479864,-4.832974 -4.832974,-4.832974 -2.922263,0 -4.964101,2.360289 -4.964101,5.226355 v 0.03746 c 0,3.072123 2.229163,5.18889 5.245088,5.18889 1.461132,0 2.603811,-0.468311 3.484237,-1.217609 z"
           inkscape:connector-curvature="0" />
        <path
           id="path858"
           style="font-style:normal;font-variant:normal;font-weight:bold;font-stretch:normal;font-family:'Gotham Rounded';-inkscape-font-specification:'Gotham Rounded Bold';letter-spacing:-0.365125px;stroke-width:0.26458335px"
           d="m 52.570335,76.166245 c 2.172965,0 3.840154,-1.011553 3.840154,-3.240715 v -0.03746 c 0,-1.835781 -1.629724,-2.510149 -3.034658,-2.978461 -1.086483,-0.374649 -2.041838,-0.636903 -2.041838,-1.198877 v -0.03747 c 0,-0.393382 0.355917,-0.693101 1.049018,-0.693101 0.599438,0 1.367469,0.243522 2.172965,0.636904 0.187324,0.09366 0.318451,0.131127 0.524508,0.131127 0.636904,0 1.14268,-0.487044 1.14268,-1.123947 0,-0.487044 -0.262254,-0.861693 -0.674368,-1.06775 -0.974088,-0.487044 -2.06057,-0.768031 -3.109588,-0.768031 -2.023105,0 -3.671561,1.14268 -3.671561,3.184517 v 0.03746 c 0,1.948176 1.592259,2.603812 2.997193,3.015926 1.105215,0.337184 2.079302,0.543241 2.079302,1.161412 v 0.03747 c 0,0.449579 -0.374649,0.749298 -1.198877,0.749298 -0.805495,0 -1.760851,-0.299719 -2.716206,-0.899158 -0.14986,-0.09366 -0.355917,-0.149859 -0.561974,-0.149859 -0.636903,0 -1.123947,0.487043 -1.123947,1.123947 0,0.449579 0.243522,0.786763 0.543241,0.974088 1.21761,0.786763 2.547614,1.14268 3.783956,1.14268 z"
           inkscape:connector-curvature="0" />
      </g>
      <path
         style="stroke-width:0.26458335"
         id="path2"
         d="m 51.954699,247.98982 c -0.158378,-0.15838 -0.316755,-0.31676 -0.190053,-0.60183 0.126702,-0.28508 0.380106,-0.31676 0.601835,-0.31676 1.552101,-0.0634 3.104202,-0.15838 4.656303,-0.22173 0.03168,0 0.06335,0 0.06335,0 0.443458,0 0.633511,0.22173 0.601836,0.66519 -0.06335,1.52042 -0.158378,3.04085 -0.221729,4.5296 0,0.28508 -0.06335,0.53848 -0.348431,0.66518 -0.09503,0.0634 -0.158378,0.0634 -0.221729,0.0634 -0.190053,0 -0.316755,-0.12671 -0.443457,-0.28508 -0.380107,-0.38011 -0.728538,-0.72854 -1.108644,-1.10865 -0.06335,-0.0633 -0.09503,-0.095 -0.158378,-0.1267 l -0.158377,-0.15838 -0.506809,0.50681 -4.307872,4.30787 -0.380107,0.38011 -0.950266,0.95027 -4.434574,4.43457 -0.253405,0.2534 c -0.158377,0.15838 -0.380106,0.25341 -0.601835,0.28508 -0.03167,0 -0.09503,0 -0.126702,0 -0.253404,0 -0.538484,-0.095 -0.728537,-0.28508 l -0.253404,-0.2534 -0.950266,-0.95027 -2.248963,-2.24896 c 0.03167,-0.95026 0.348431,-1.8055 0.886915,-2.53404 l 3.072526,3.07253 0.221729,0.22172 0.126702,-0.1267 3.579336,-3.57933 0.950266,-0.95027 0.380106,-0.38011 4.307872,-4.30787 0.538484,-0.53848 c -0.443457,-0.41178 -0.91859,-0.88692 -1.393723,-1.36205 z m -21.317634,11.05476 c -0.411782,0.41178 -0.411782,1.04529 0,1.45708 l 0.253405,0.2534 c 0.190053,0.19005 0.475133,0.28508 0.728537,0.28508 0.253404,0 0.538484,-0.095 0.728537,-0.28508 l 1.932208,-1.93221 c 0,-0.0317 0,-0.0634 0,-0.1267 0,-1.5521 0.34843,-3.00918 1.013617,-4.30787 z m 26.73415,10.6113 -5.828298,-5.82829 -0.316755,0.31675 -0.443458,-0.44346 c 1.045293,-1.39372 1.647128,-3.13587 1.647128,-5.00473 0,-0.91859 -0.158378,-1.83718 -0.443457,-2.66074 l -2.122261,2.12226 c 0.03167,0.19005 0.03167,0.3801 0.03167,0.57016 0,3.26258 -2.660744,5.92332 -5.923324,5.92332 -3.26258,0 -5.923325,-2.66074 -5.923325,-5.92332 0,-3.26258 2.660745,-5.92333 5.923325,-5.92333 1.171994,0 2.280638,0.34843 3.199229,0.95027 l 1.805505,-1.80551 c -1.393724,-1.04529 -3.135878,-1.64713 -5.004734,-1.64713 -4.656304,0 -8.425692,3.76939 -8.425692,8.4257 0,4.6563 3.769388,8.42569 8.425692,8.42569 1.900532,0 3.642686,-0.63351 5.036409,-1.67881 l 0.443458,0.44346 -0.316755,0.31676 5.828298,5.8283 c 0.665186,0.66518 1.742154,0.66518 2.375665,0 0.696861,-0.69687 0.696861,-1.74216 0.03167,-2.40735 z"
         inkscape:connector-curvature="0" />
    </g>
  </g>
</svg>
